<svg width="1256" height="856" viewBox="0 0 1256 856" fill="none" xmlns="http://www.w3.org/2000/svg">
<path d="M1256 176V856H196.332C196.332 838.013 162.343 828.52 162.343 784.053C162.343 739.586 199.831 753.575 196.332 724.097C192.833 694.619 142.349 676.632 147.348 629.666C152.346 582.701 197.832 596.691 181.837 541.731C165.842 486.771 214.827 501.76 255.814 457.793C296.801 413.825 279.306 342.877 374.277 368.858C469.247 394.839 437.757 323.392 515.732 368.858C593.708 414.325 602.205 386.845 656.188 368.858C710.171 350.871 753.658 367.359 811.14 342.877C868.621 318.395 897.113 238.454 970.589 234.957C1044.07 231.459 1040.57 257.94 1122.04 251.445C1187.22 246.248 1238.51 197.651 1256 176Z" fill="black"/>
</svg>
